<?xml version="1.0" encoding="UTF-8" standalone="no"?><!DOCTYPE svg PUBLIC "-//W3C//DTD SVG 1.1//EN" "http://www.w3.org/Graphics/SVG/1.1/DTD/svg11.dtd"><svg width="100%" height="100%" viewBox="0 0 1203 1046" version="1.1" xmlns="http://www.w3.org/2000/svg" xmlns:xlink="http://www.w3.org/1999/xlink" xml:space="preserve" xmlns:serif="http://www.serif.com/" style="fill-rule:evenodd;clip-rule:evenodd;stroke-linecap:round;stroke-linejoin:round;stroke-miterlimit:1.5;"><g id="ear"><g id="sound"><path d="M21.826,379.445c94.05,94.05 94.133,182.463 0.083,276.513" style="fill:none;stroke:#454545;stroke-width:41.67px;"/><path d="M142.594,334.717c114.817,121.99 116.952,243.979 0.083,365.969" style="fill:none;stroke:#454545;stroke-width:41.67px;"/><path d="M276.781,289.988c114.817,121.99 116.951,333.437 0.082,455.427" style="fill:none;stroke:#454545;stroke-width:41.67px;"/></g><path id="path_outer_ear" d="M851.049,0.838c-281.167,-0.016 -314.122,301.986 -260.77,384.824c45.631,70.851 -66.061,-336.394 281.645,-339.79c153.24,-1.497 284.506,134.4 287.282,284.653c2.38,128.865 -90.902,258.542 -171.958,349.579c-46.4,52.112 -81.707,115.938 -81.374,186.945c0.324,69.304 -45.865,128.046 -120.657,130.843c-79.832,2.987 -137.083,-73.274 -120.761,-139.351c50.281,-203.547 -137.659,54.09 35.371,164.631c79.31,50.666 216.74,12.348 238.278,-88.648c16.868,-79.098 21.99,-162.661 83.742,-225.306c100.3,-101.752 195.212,-263.38 179.334,-413.08c-17.822,-168.04 -151.035,-295.288 -350.132,-295.3Z" style="fill:#454545;fill-rule:nonzero;"/><path id="path_inner_ear" d="M807.071,121.236c-89.054,26.815 -203.307,172.127 -122.879,350.164c14.798,32.757 35.648,-24.341 30.207,-48.597c-10.076,-44.915 227.074,39.76 75.764,165.844c-88.713,73.921 -51.358,194.498 -41.029,142.819c6.51,-32.568 19.489,-65.191 46.95,-86.377c151.855,-117.157 87.337,-265.116 -28.969,-269.407c-99.728,-3.68 -77.618,-112.325 -3.614,-105.565c36.874,3.368 73.912,24.977 84.414,60.908c6.243,21.357 57.934,77.714 50.558,36.823c-12.08,-66.963 -73.782,-126.026 -120.403,-138.837c-32.866,-9.031 24.18,-40.262 40.995,-47.389c58.243,-24.687 135.707,-10.208 171.812,45.083c35.92,55.007 50.098,125.527 35.154,188.537c-38.821,163.691 -160.711,205.194 -155.474,246.623c9.174,72.57 17.863,1.735 90.286,-61.092c56.401,-48.93 90.871,-126.832 101.653,-159.278c71.39,-214.813 -96.477,-368.121 -255.425,-320.259Z" style="fill:#454545;fill-rule:nonzero;"/></g></svg>